# xmcd CD database file
#
# Track frame offsets:
#	150
#	17292
#	33920
#	50735
#	65545
#	81567
#	100220
#	116762
#	132522
#	155887
#
# Disc length: 2251 seconds
#
# Revision: 1
# Processed by: cddbd v1.5.2PL0 Copyright (c) Steve Scherf et al.
# Submitted via: CDex 1.79
#
DISCID=8a08c90a
DTITLE=Edens Edge - Edens Edge
DYEAR=2012
DGENRE=Country
TTITLE0=Amen
TTITLE1=Swingin' Door
TTITLE2=Skinny Dippin'
TTITLE3=Too Good To Be True
TTITLE4=Last Supper
TTITLE5=Feels So Real
TTITLE6=Who Am I Drinking Tonight
TTITLE7=Liar
TTITLE8=Cherry Pie
TTITLE9=Christ Alone
EXTD=YEAR: 2012
EXTT0=
EXTT1=
EXTT2=
EXTT3=
EXTT4=
EXTT5=
EXTT6=
EXTT7=
EXTT8=
EXTT9=
PLAYORDER=
